<?xml version="1.0" standalone="no"?>
<!DOCTYPE svg PUBLIC "-//W3C//DTD SVG 20010904//EN"
 "http://www.w3.org/TR/2001/REC-SVG-20010904/DTD/svg10.dtd">
<svg version="1.0" xmlns="http://www.w3.org/2000/svg"
 width="700.000000pt" height="700.000000pt" viewBox="0 0 700.000000 700.000000"
 preserveAspectRatio="xMidYMid meet">
<metadata>
Created by potrace 1.11, written by Peter Selinger 2001-2013
</metadata>
<g transform="translate(0.000000,700.000000) scale(0.100000,-0.100000)"
fill="#000000" stroke="none">
<path d="M595 6994 c-205 -43 -360 -140 -466 -292 -46 -65 -98 -181 -113 -253
-12 -53 -14 -421 -15 -2244 -1 -2459 -7 -2259 78 -2421 108 -207 292 -338 531
-378 14 -3 276 -5 582 -5 l558 -1 2 -698 3 -699 140 88 c77 48 247 154 377
236 131 81 278 173 326 203 49 30 118 73 153 96 108 69 1133 709 1144 714 5 3
29 17 52 32 l42 28 1213 3 c667 1 1222 5 1233 9 11 3 40 11 64 18 112 30 244
115 326 211 65 76 106 148 141 245 l29 79 2 2215 c2 2182 2 2216 -18 2289 -73
272 -285 469 -559 520 -53 10 -5778 14 -5825 5z m1980 -1998 c272 -44 497
-211 606 -452 125 -275 89 -602 -92 -840 -217 -285 -615 -386 -961 -243 -145
60 -283 177 -364 311 -187 307 -148 718 91 977 123 132 305 228 470 246 33 4
61 8 63 10 5 4 144 -2 187 -9z m2128 -5 c96 -16 187 -52 299 -117 43 -26 154
-132 195 -188 198 -269 210 -649 28 -931 -212 -329 -653 -452 -1025 -283 -126
57 -262 178 -335 298 -39 64 -91 189 -99 240 -27 156 -27 230 -2 370 15 79 66
201 119 280 39 59 173 190 223 218 126 71 227 107 334 119 30 3 56 6 57 7 7 6
147 -3 206 -13z"/>
</g>
</svg>
