<?xml version="1.0" standalone="no"?>
<!DOCTYPE svg PUBLIC "-//W3C//DTD SVG 20010904//EN"
 "http://www.w3.org/TR/2001/REC-SVG-20010904/DTD/svg10.dtd">
<svg version="1.0" xmlns="http://www.w3.org/2000/svg"
 width="700.000000pt" height="700.000000pt" viewBox="0 0 700.000000 700.000000"
 preserveAspectRatio="xMidYMid meet">
<metadata>
Created by potrace 1.11, written by Peter Selinger 2001-2013
</metadata>
<g transform="translate(0.000000,700.000000) scale(0.100000,-0.100000)"
fill="#000000" stroke="none">
<path d="M609 6996 c-2 -2 -23 -7 -47 -11 -209 -31 -425 -209 -509 -418 -25
-64 -27 -72 -43 -147 -6 -27 -8 -919 -7 -2250 3 -2385 0 -2221 52 -2345 23
-53 95 -161 137 -205 107 -113 252 -188 413 -214 17 -2 281 -5 587 -5 l558 -1
2 -698 3 -699 115 73 c63 41 138 87 165 104 28 17 77 48 110 69 33 21 202 127
375 236 173 109 348 219 387 244 40 25 142 89 225 142 84 53 284 178 443 279
160 101 315 198 345 216 l55 34 1220 3 c671 1 1229 5 1240 9 11 3 39 11 62 17
208 56 388 230 467 450 l31 86 0 2230 0 2230 -23 72 c-75 238 -248 408 -488
480 -56 17 -220 18 -2965 21 -1598 1 -2907 0 -2910 -2z m2185 -2125 c85 -30
138 -64 204 -130 59 -58 122 -169 137 -241 15 -69 14 -378 -2 -443 -19 -80
-19 -79 -28 -102 -79 -206 -246 -361 -459 -427 -95 -30 -290 -31 -381 -4 -202
62 -350 186 -444 373 -49 97 -69 191 -66 313 3 125 9 154 42 240 81 206 256
365 465 424 78 22 96 23 293 21 154 -2 189 -6 239 -24z m1936 6 c191 -63 313
-152 405 -296 84 -131 116 -252 111 -411 -6 -173 -73 -330 -195 -456 -140
-145 -317 -215 -525 -209 -309 9 -560 206 -651 510 -22 72 -31 377 -14 465 37
189 202 361 392 405 75 18 417 12 477 -8z"/>
</g>
</svg>
